<?xml version="1.0" encoding="UTF-8"?>
<!DOCTYPE svg PUBLIC "-//W3C//DTD SVG 1.1//EN" "http://www.w3.org/Graphics/SVG/1.1/DTD/svg11.dtd">
<svg xmlns="http://www.w3.org/2000/svg" version="1.1" width="254px" height="131px" style="shape-rendering:geometricPrecision; text-rendering:geometricPrecision; image-rendering:optimizeQuality; fill-rule:evenodd; clip-rule:evenodd" xmlns:xlink="http://www.w3.org/1999/xlink">
<g><path style="opacity:1" fill="#6b3036" d="M 242.5,20.5 C 244.031,21.9245 243.698,22.5912 241.5,22.5C 238.465,22.4607 235.798,21.4607 233.5,19.5C 230.454,16.0746 228.454,12.0746 227.5,7.5C 159.503,6.50003 91.5033,6.1667 23.5,6.5C 23.5,8.16667 23.5,9.83333 23.5,11.5C 22.2329,8.93868 22.2329,6.27202 23.5,3.5C 91.6654,2.33455 159.999,2.16789 228.5,3C 229.966,7.23949 231.799,11.4062 234,15.5C 236.481,17.8244 239.314,19.491 242.5,20.5 Z"/></g>
<g><path style="opacity:1" fill="#ea6979" d="M 233.5,19.5 C 231.685,18.3702 229.685,17.7036 227.5,17.5C 227.784,15.5853 227.451,13.9187 226.5,12.5C 226.5,10.8333 226.5,9.16667 226.5,7.5C 202.833,7.5 179.167,7.5 155.5,7.5C 118.5,7.5 81.5,7.5 44.5,7.5C 38.1667,7.5 31.8333,7.5 25.5,7.5C 25.6602,9.19919 25.4935,10.8659 25,12.5C 24.5831,13.756 23.7498,14.4226 22.5,14.5C 23.1098,13.609 23.4431,12.609 23.5,11.5C 23.5,9.83333 23.5,8.16667 23.5,6.5C 91.5033,6.1667 159.503,6.50003 227.5,7.5C 228.454,12.0746 230.454,16.0746 233.5,19.5 Z"/></g>
<g><path style="opacity:1" fill="#fd6275" d="M 155.5,7.5 C 179.167,7.5 202.833,7.5 226.5,7.5C 226.5,9.16667 226.5,10.8333 226.5,12.5C 224.214,13.3402 223.881,14.8402 225.5,17C 225.101,18.7275 224.434,20.2275 223.5,21.5C 222.833,21.1667 222.167,20.8333 221.5,20.5C 199.673,19.5026 177.673,19.1693 155.5,19.5C 156.743,15.4841 156.743,11.4841 155.5,7.5 Z"/></g>
<g><path style="opacity:1" fill="#fd6173" d="M 44.5,7.5 C 81.5,7.5 118.5,7.5 155.5,7.5C 156.743,11.4841 156.743,15.4841 155.5,19.5C 119.165,19.6667 82.8318,19.5 46.5,19C 48.9156,18.3386 50.5823,16.8386 51.5,14.5C 50.3112,13.5713 48.9778,13.238 47.5,13.5C 47.5,11.8333 47.5,10.1667 47.5,8.5C 46.209,8.73731 45.209,8.40397 44.5,7.5 Z"/></g>
<g><path style="opacity:1" fill="#fe556d" d="M 44.5,7.5 C 45.209,8.40397 46.209,8.73731 47.5,8.5C 47.5,10.1667 47.5,11.8333 47.5,13.5C 48.9778,13.238 50.3112,13.5713 51.5,14.5C 50.5823,16.8386 48.9156,18.3386 46.5,19C 82.8318,19.5 119.165,19.6667 155.5,19.5C 177.673,19.1693 199.673,19.5026 221.5,20.5C 158.167,20.5 94.8333,20.5 31.5,20.5C 30.8333,20.5 30.1667,20.5 29.5,20.5C 29.8515,17.9272 29.3515,15.5938 28,13.5C 27.0853,14.3279 26.4186,15.3279 26,16.5C 24.5098,15.2721 23.0098,15.2721 21.5,16.5C 21.3284,15.5084 21.6618,14.8417 22.5,14.5C 23.7498,14.4226 24.5831,13.756 25,12.5C 25.4935,10.8659 25.6602,9.19919 25.5,7.5C 31.8333,7.5 38.1667,7.5 44.5,7.5 Z"/></g>
<g><path style="opacity:1" fill="#fc6376" d="M 233.5,22.5 C 235.806,22.9926 238.139,23.3259 240.5,23.5C 239.455,32.0855 239.789,40.4188 241.5,48.5C 238.816,52.1221 239.15,55.4555 242.5,58.5C 242.5,58.8333 242.5,59.1667 242.5,59.5C 241.974,63.3504 241.307,67.1838 240.5,71C 241.029,72.5589 241.696,74.0589 242.5,75.5C 240.265,83.4623 240.265,91.4623 242.5,99.5C 242.022,102.278 243.022,104.278 245.5,105.5C 241.925,107.122 238.259,108.456 234.5,109.5C 234.166,103.309 233.666,96.9755 233,90.5C 232.385,88.8839 231.385,87.5505 230,86.5C 229.742,91.4968 229.909,96.3302 230.5,101C 230.491,102.404 229.991,103.57 229,104.5C 228.333,84.1667 228.333,63.8333 229,43.5C 230.077,50.0738 230.41,56.7404 230,63.5C 231.864,65.8521 231.697,68.1855 229.5,70.5C 230.656,73.0602 230.656,75.5602 229.5,78C 231.706,78.7319 233.372,78.0652 234.5,76C 233.167,71.3333 233.167,66.6667 234.5,62C 233.833,60 233.167,58 232.5,56C 233.256,47.3951 233.923,38.7284 234.5,30C 233.805,27.2934 233.472,24.7934 233.5,22.5 Z"/></g>
<g><path style="opacity:1" fill="#6d3137" d="M 242.5,20.5 C 247.486,20.3049 249.152,22.4716 247.5,27C 249.707,29.1177 249.707,31.2844 247.5,33.5C 247.923,30.7118 246.923,28.7118 244.5,27.5C 244.167,27.8333 243.833,28.1667 243.5,28.5C 244.383,29.548 245.05,30.7147 245.5,32C 245.164,33.0299 244.497,33.5299 243.5,33.5C 242.622,31.0879 242.622,28.4213 243.5,25.5C 243.672,24.5084 243.338,23.8417 242.5,23.5C 241.833,23.5 241.5,23.1667 241.5,22.5C 243.698,22.5912 244.031,21.9245 242.5,20.5 Z"/></g>
<g><path style="opacity:1" fill="#e96978" d="M 233.5,19.5 C 235.798,21.4607 238.465,22.4607 241.5,22.5C 241.5,23.1667 241.833,23.5 242.5,23.5C 242.328,24.4916 242.662,25.1583 243.5,25.5C 242.622,28.4213 242.622,31.0879 243.5,33.5C 241.977,36.0449 242.643,38.0449 245.5,39.5C 241.5,41.8333 241.5,44.1667 245.5,46.5C 241.983,48.3836 241.649,50.7169 244.5,53.5C 243.05,54.8498 242.383,56.5165 242.5,58.5C 239.15,55.4555 238.816,52.1221 241.5,48.5C 239.789,40.4188 239.455,32.0855 240.5,23.5C 238.139,23.3259 235.806,22.9926 233.5,22.5C 233.5,21.5 233.5,20.5 233.5,19.5 Z"/></g>
<g><path style="opacity:1" fill="#71343a" d="M 247.5,34.5 C 248.091,35.1515 248.757,35.8182 249.5,36.5C 248.907,38.3817 248.24,40.2151 247.5,42C 248.167,42.6667 248.833,43.3333 249.5,44C 248.901,45.6225 248.234,47.1225 247.5,48.5C 247.672,46.5082 247.005,44.8415 245.5,43.5C 246.833,40.8333 246.833,38.1667 245.5,35.5C 245.957,34.7025 246.624,34.3691 247.5,34.5 Z"/></g>
<g><path style="opacity:1" fill="#ef173d" d="M 31.5,20.5 C 94.8333,20.5 158.167,20.5 221.5,20.5C 222.167,20.8333 222.833,21.1667 223.5,21.5C 224.688,22.3636 225.855,23.3636 227,24.5C 227.667,51.5 227.667,78.5 227,105.5C 225.841,108.493 223.675,110.16 220.5,110.5C 213.5,110.5 206.5,110.5 199.5,110.5C 199.5,109.833 199.5,109.167 199.5,108.5C 198.833,90.5 198.167,72.5 197.5,54.5C 197.5,43.8333 197.5,33.1667 197.5,22.5C 150.167,22.5 102.833,22.5 55.5,22.5C 55.5,24.1667 55.5,25.8333 55.5,27.5C 55.5,33.1667 55.5,38.8333 55.5,44.5C 55.5,60.5 55.5,76.5 55.5,92.5C 55.5,97.8333 55.5,103.167 55.5,108.5C 54.8333,79.8333 54.1667,51.1667 53.5,22.5C 46.1667,21.8333 38.8333,21.1667 31.5,20.5 Z"/></g>
<g><path style="opacity:1" fill="#fd5a6d" d="M 55.5,27.5 C 57.3271,28.9319 58.9937,30.5986 60.5,32.5C 61.1667,31.1667 61.8333,29.8333 62.5,28.5C 63.5968,30.229 64.7635,31.8956 66,33.5C 67.1332,31.7888 68.6332,31.2888 70.5,32C 71.3041,33.7713 72.4708,35.2713 74,36.5C 74.49,35.2068 74.6567,33.8734 74.5,32.5C 75.5,32.5 76.5,32.5 77.5,32.5C 77.5,35.1667 77.5,37.8333 77.5,40.5C 77.2904,50.8043 77.2904,61.1376 77.5,71.5C 77.7981,74.6034 76.4648,76.27 73.5,76.5C 73.3601,74.8762 74.0267,73.7096 75.5,73C 74.7256,70.595 74.2256,68.095 74,65.5C 72.9505,64.4829 71.7839,64.3162 70.5,65C 72.8802,68.1898 72.8802,70.8564 70.5,73C 71.7566,75.9461 70.7566,77.2794 67.5,77C 68.2598,75.5589 68.9264,74.0589 69.5,72.5C 68.371,70.7249 67.371,69.0582 66.5,67.5C 67.5,66.8333 68.5,66.1667 69.5,65.5C 66.881,62.2521 66.881,59.0854 69.5,56C 68.7734,54.6012 68.2734,53.1012 68,51.5C 66.713,56.5967 65.5463,61.7634 64.5,67C 65.885,68.9645 65.7184,70.7979 64,72.5C 62.9563,71.3774 62.2896,70.0441 62,68.5C 61.2276,69.8491 60.0609,70.6824 58.5,71C 59.624,71.2492 60.624,71.7492 61.5,72.5C 60.0285,72.4056 58.8618,73.4056 58,75.5C 56.2693,70.2509 56.1026,64.9176 57.5,59.5C 59.1161,60.1152 60.4495,61.1152 61.5,62.5C 62.657,59.2156 62.8236,55.8823 62,52.5C 61.3333,53.1667 60.6667,53.8333 60,54.5C 55.5743,51.701 55.4076,48.701 59.5,45.5C 58.3112,44.5713 56.9778,44.238 55.5,44.5C 55.5,38.8333 55.5,33.1667 55.5,27.5 Z"/></g>
<g><path style="opacity:1" fill="#fc6276" d="M 225.5,27.5 C 225.5,43.1667 225.5,58.8333 225.5,74.5C 225.167,74.5 224.833,74.5 224.5,74.5C 224.5,69.5 224.5,64.5 224.5,59.5C 223.5,59.5 222.5,59.5 221.5,59.5C 221.5,59.1667 221.5,58.8333 221.5,58.5C 220.909,57.8485 220.243,57.1818 219.5,56.5C 220.243,55.8182 220.909,55.1515 221.5,54.5C 223.464,50.5888 222.464,47.9221 218.5,46.5C 216.502,45.8525 214.502,45.0192 212.5,44C 215.886,43.3954 219.386,42.8954 223,42.5C 225.536,38.6185 224.702,35.9518 220.5,34.5C 220.167,34.5 219.833,34.5 219.5,34.5C 213.654,33.1834 207.654,33.1834 201.5,34.5C 200.438,37.1029 200.272,39.7695 201,42.5C 204.405,43.5823 207.905,44.4156 211.5,45C 210.944,45.3826 210.611,45.8826 210.5,46.5C 208.167,46.5 205.833,46.5 203.5,46.5C 202.504,46.4142 201.671,46.7476 201,47.5C 200.502,50.4816 200.335,53.4816 200.5,56.5C 202.179,56.2852 203.179,56.9519 203.5,58.5C 202.504,58.4142 201.671,58.7476 201,59.5C 199.32,64.3811 200.82,67.7144 205.5,69.5C 206.466,71.396 206.799,73.396 206.5,75.5C 205.178,75.33 204.011,75.6634 203,76.5C 202.472,77.816 202.972,78.4827 204.5,78.5C 205.5,78.5 206.5,78.5 207.5,78.5C 207.369,79.3764 207.702,80.0431 208.5,80.5C 210.098,79.5153 211.765,79.3486 213.5,80C 214.551,81.3848 215.884,82.3848 217.5,83C 212.649,83.1745 207.982,83.6745 203.5,84.5C 202.833,84.5 202.167,84.5 201.5,84.5C 200.596,85.209 200.263,86.209 200.5,87.5C 207.887,87.6856 208.221,88.6856 201.5,90.5C 200.833,92.5 200.167,94.5 199.5,96.5C 199.5,71.8333 199.5,47.1667 199.5,22.5C 207.174,22.3336 214.841,22.5003 222.5,23C 223.883,24.2708 224.883,25.7708 225.5,27.5 Z"/></g>
<g><path style="opacity:1" fill="#fd6375" d="M 176.5,23.5 C 175.259,33.9682 175.925,44.8016 178.5,56C 178,56.5 177.5,57 177,57.5C 176.833,59.8333 176.667,62.1667 176.5,64.5C 177.235,74.8629 177.235,84.6962 176.5,94C 175.551,94.6172 174.718,94.4506 174,93.5C 174.178,88.6131 173.678,83.6131 172.5,78.5C 171.914,78.7093 171.414,79.0426 171,79.5C 170.567,92.3981 169.067,92.7314 166.5,80.5C 165.451,83.0795 164.784,85.7462 164.5,88.5C 163.5,88.5 162.5,88.5 161.5,88.5C 161.813,85.7531 161.48,83.0865 160.5,80.5C 159.723,82.7812 158.723,84.9479 157.5,87C 155.567,87.2511 153.734,87.7511 152,88.5C 151.794,86.0643 150.627,84.3976 148.5,83.5C 148.5,81.1667 148.5,78.8333 148.5,76.5C 150.144,76.2865 151.644,76.6198 153,77.5C 153.667,75.1667 153.667,72.8333 153,70.5C 152,69.1667 151,69.1667 150,70.5C 148.52,68.3369 148.52,66.3369 150,64.5C 150.169,56.8117 150.669,49.1451 151.5,41.5C 152.167,47.9875 152.833,54.3208 153.5,60.5C 155.279,62.3435 157.612,63.0102 160.5,62.5C 160.5,55.1667 160.5,47.8333 160.5,40.5C 162.256,39.4479 162.923,37.7812 162.5,35.5C 156.355,34.5098 150.022,34.1765 143.5,34.5C 140.555,33.5325 137.555,33.3658 134.5,34C 133.074,36.0454 132.074,38.2121 131.5,40.5C 130.262,38.7857 129.595,36.7857 129.5,34.5C 127.5,34.5 125.5,34.5 123.5,34.5C 121.167,34.5 118.833,34.5 116.5,34.5C 113.167,34.5 109.833,34.5 106.5,34.5C 109.122,33.9669 111.622,32.9669 114,31.5C 113.053,29.6508 112.387,27.6508 112,25.5C 112.928,27.3348 114.094,27.6682 115.5,26.5C 116.5,27 117.5,27.5 118.5,28C 117.167,29.3333 117.167,30.6667 118.5,32C 121.475,32.3357 124.142,32.169 126.5,31.5C 128.332,32.2485 129.999,33.2485 131.5,34.5C 131.833,34.1667 132.167,33.8333 132.5,33.5C 131.787,31.2241 131.287,28.8907 131,26.5C 129.759,28.4206 128.259,28.754 126.5,27.5C 127.711,26.2798 127.711,25.1131 126.5,24C 130.867,23.6362 135.034,23.4696 139,23.5C 139.807,27.449 140.307,27.449 140.5,23.5C 146.167,23.5 151.833,23.5 157.5,23.5C 157.5,24.5 157.5,25.5 157.5,26.5C 156.178,26.33 155.011,26.6634 154,27.5C 153.311,26.6433 152.478,25.9767 151.5,25.5C 149.629,26.767 147.796,26.767 146,25.5C 144.601,26.2266 143.101,26.7266 141.5,27C 140.663,28.0113 140.33,29.1779 140.5,30.5C 144.236,31.3705 148.236,31.3705 152.5,30.5C 155.742,30.7833 156.076,31.6166 153.5,33C 157.089,33.2069 160.589,33.7069 164,34.5C 164.21,33.1971 164.043,31.8638 163.5,30.5C 164.613,28.2164 165.613,25.8831 166.5,23.5C 169.652,23.7121 172.985,23.7121 176.5,23.5 Z"/></g>
<g><path style="opacity:1" fill="#fd6074" d="M 197.5,54.5 C 197.5,72.5 197.5,90.5 197.5,108.5C 189.5,108.5 181.5,108.5 173.5,108.5C 181.021,107.736 188.688,107.069 196.5,106.5C 196.5,78.8333 196.5,51.1667 196.5,23.5C 189.833,23.5 183.167,23.5 176.5,23.5C 172.985,23.7121 169.652,23.7121 166.5,23.5C 165.613,25.8831 164.613,28.2164 163.5,30.5C 164.043,31.8638 164.21,33.1971 164,34.5C 160.589,33.7069 157.089,33.2069 153.5,33C 156.076,31.6166 155.742,30.7833 152.5,30.5C 148.236,31.3705 144.236,31.3705 140.5,30.5C 140.33,29.1779 140.663,28.0113 141.5,27C 143.101,26.7266 144.601,26.2266 146,25.5C 147.796,26.767 149.629,26.767 151.5,25.5C 152.478,25.9767 153.311,26.6433 154,27.5C 155.011,26.6634 156.178,26.33 157.5,26.5C 157.5,25.5 157.5,24.5 157.5,23.5C 151.833,23.5 146.167,23.5 140.5,23.5C 140.307,27.449 139.807,27.449 139,23.5C 135.034,23.4696 130.867,23.6362 126.5,24C 127.711,25.1131 127.711,26.2798 126.5,27.5C 128.259,28.754 129.759,28.4206 131,26.5C 131.287,28.8907 131.787,31.2241 132.5,33.5C 132.167,33.8333 131.833,34.1667 131.5,34.5C 129.999,33.2485 128.332,32.2485 126.5,31.5C 124.142,32.169 121.475,32.3357 118.5,32C 117.167,30.6667 117.167,29.3333 118.5,28C 117.5,27.5 116.5,27 115.5,26.5C 114.094,27.6682 112.928,27.3348 112,25.5C 112.387,27.6508 113.053,29.6508 114,31.5C 111.622,32.9669 109.122,33.9669 106.5,34.5C 105.833,41.1667 105.167,47.8333 104.5,54.5C 102.977,51.3703 102.311,48.037 102.5,44.5C 104.7,35.5359 101.533,32.2025 93,34.5C 91.171,41.0642 89.8377,47.7309 89,54.5C 88.1993,57.367 88.3659,60.0336 89.5,62.5C 94.071,62.8669 98.7377,63.2002 103.5,63.5C 102.801,66.9447 101.134,67.278 98.5,64.5C 97.7193,65.7366 96.7193,66.7366 95.5,67.5C 91.7572,66.7067 88.4239,65.2067 85.5,63C 85.8333,62.6667 86.1667,62.3333 86.5,62C 85.283,60.3523 84.4497,58.519 84,56.5C 83.7941,50.1162 83.2941,43.7829 82.5,37.5C 82.8333,36.8333 83.1667,36.1667 83.5,35.5C 82.5,34.1667 81.5,34.1667 80.5,35.5C 82.573,40.588 81.573,42.2547 77.5,40.5C 77.5,37.8333 77.5,35.1667 77.5,32.5C 76.5,32.5 75.5,32.5 74.5,32.5C 74.6567,33.8734 74.49,35.2068 74,36.5C 72.4708,35.2713 71.3041,33.7713 70.5,32C 68.6332,31.2888 67.1332,31.7888 66,33.5C 64.7635,31.8956 63.5968,30.229 62.5,28.5C 61.8333,29.8333 61.1667,31.1667 60.5,32.5C 58.9937,30.5986 57.3271,28.9319 55.5,27.5C 55.5,25.8333 55.5,24.1667 55.5,22.5C 102.833,22.5 150.167,22.5 197.5,22.5C 197.5,33.1667 197.5,43.8333 197.5,54.5 Z"/></g>
<g><path style="opacity:1" fill="#974753" d="M 143.5,35.5 C 143.5,35.1667 143.5,34.8333 143.5,34.5C 150.022,34.1765 156.355,34.5098 162.5,35.5C 158.833,35.5 155.167,35.5 151.5,35.5C 151.5,37.1667 151.5,38.8333 151.5,40.5C 150.833,40.5 150.167,40.5 149.5,40.5C 149.784,38.5853 149.451,36.9187 148.5,35.5C 146.833,35.5 145.167,35.5 143.5,35.5 Z"/></g>
<g><path style="opacity:1" fill="#080001" d="M 143.5,35.5 C 145.167,35.5 146.833,35.5 148.5,35.5C 148.5,44.1667 148.5,52.8333 148.5,61.5C 146.833,61.5 145.167,61.5 143.5,61.5C 143.5,52.8333 143.5,44.1667 143.5,35.5 Z"/></g>
<g><path style="opacity:1" fill="#0c0102" d="M 162.5,35.5 C 162.923,37.7812 162.256,39.4479 160.5,40.5C 159.509,47.3134 159.175,54.3134 159.5,61.5C 157.833,61.5 156.167,61.5 154.5,61.5C 154.825,54.3134 154.491,47.3134 153.5,40.5C 152.833,40.5 152.167,40.5 151.5,40.5C 151.5,38.8333 151.5,37.1667 151.5,35.5C 155.167,35.5 158.833,35.5 162.5,35.5 Z"/></g>
<g><path style="opacity:1" fill="#170707" d="M 116.5,35.5 C 118.044,35.7031 119.378,36.3698 120.5,37.5C 121.665,44.8107 121.831,52.144 121,59.5C 120.097,60.7014 118.931,61.5348 117.5,62C 113.848,62.4986 110.182,62.6653 106.5,62.5C 106.5,53.5 106.5,44.5 106.5,35.5C 109.833,35.5 113.167,35.5 116.5,35.5 Z"/></g>
<g><path style="opacity:1" fill="#d96474" d="M 102.5,44.5 C 101.662,44.1583 101.328,43.4916 101.5,42.5C 101.326,40.139 100.993,37.8056 100.5,35.5C 98.1667,35.5 95.8333,35.5 93.5,35.5C 92.1708,43.816 90.8375,52.1493 89.5,60.5C 89.5,61.1667 89.5,61.8333 89.5,62.5C 88.3659,60.0336 88.1993,57.367 89,54.5C 89.8377,47.7309 91.171,41.0642 93,34.5C 101.533,32.2025 104.7,35.5359 102.5,44.5 Z"/></g>
<g><path style="opacity:1" fill="#ef475f" d="M 15.5,21.5 C 14.6091,23.6089 13.4424,25.6089 12,27.5C 11.2015,23.5761 10.7015,23.5761 10.5,27.5C 11.3437,30.4705 11.5104,33.4705 11,36.5C 11.6914,34.1088 12.6914,34.1088 14,36.5C 14.1974,39.7653 15.3641,42.5987 17.5,45C 16.6569,46.7866 16.4902,48.6199 17,50.5C 16.586,50.0426 16.086,49.7093 15.5,49.5C 14.8333,51.1667 14.1667,52.8333 13.5,54.5C 12.3652,55.1027 11.3652,55.4361 10.5,55.5C 11.6888,56.4287 13.0222,56.762 14.5,56.5C 14.2076,64.286 13.8743,71.9527 13.5,79.5C 12.8076,80.0253 12.3076,80.6919 12,81.5C 11.6667,78.8333 11.3333,76.1667 11,73.5C 10.6258,74.4162 10.1258,75.2496 9.5,76C 10.8283,85.2649 10.8283,94.4315 9.5,103.5C 9.97834,100.722 8.97834,98.7224 6.5,97.5C 10.0172,95.6164 10.3506,93.2831 7.5,90.5C 9.08626,88.8273 9.75293,86.8273 9.5,84.5C 8.32496,84.719 7.32496,84.3857 6.5,83.5C 10.4804,80.7799 10.4804,78.1132 6.5,75.5C 7.32496,74.6143 8.32496,74.281 9.5,74.5C 9.02126,68.7907 9.02126,63.1241 9.5,57.5C 8.75146,55.9644 7.75146,54.6311 6.5,53.5C 7.32496,52.6143 8.32496,52.281 9.5,52.5C 9.75293,50.1727 9.08626,48.1727 7.5,46.5C 10.0142,44.1321 10.0142,41.7988 7.5,39.5C 10.4414,36.4569 10.1081,33.9569 6.5,32C 7.99043,31.2545 8.99043,30.0879 9.5,28.5C 8.20011,23.743 10.2001,21.4096 15.5,21.5 Z"/></g>
<g><path style="opacity:1" fill="#e16675" d="M 219.5,34.5 C 214.156,34.334 208.823,34.5006 203.5,35C 201.352,37.0749 201.018,39.4082 202.5,42C 206.5,42.6667 210.5,42.6667 214.5,42C 215.801,40.3845 215.801,38.8845 214.5,37.5C 216.288,36.3775 218.288,36.2109 220.5,37C 222.013,39.4541 221.346,41.1207 218.5,42C 221.23,42.9415 222.563,41.9415 222.5,39C 222.481,37.167 221.815,35.667 220.5,34.5C 224.702,35.9518 225.536,38.6185 223,42.5C 219.386,42.8954 215.886,43.3954 212.5,44C 214.502,45.0192 216.502,45.8525 218.5,46.5C 215.833,46.5 213.167,46.5 210.5,46.5C 210.611,45.8826 210.944,45.3826 211.5,45C 207.905,44.4156 204.405,43.5823 201,42.5C 200.272,39.7695 200.438,37.1029 201.5,34.5C 207.654,33.1834 213.654,33.1834 219.5,34.5 Z"/></g>
<g><path style="opacity:1" fill="#510c14" d="M 219.5,34.5 C 219.833,34.5 220.167,34.5 220.5,34.5C 221.815,35.667 222.481,37.167 222.5,39C 222.563,41.9415 221.23,42.9415 218.5,42C 221.346,41.1207 222.013,39.4541 220.5,37C 218.288,36.2109 216.288,36.3775 214.5,37.5C 215.801,38.8845 215.801,40.3845 214.5,42C 210.5,42.6667 206.5,42.6667 202.5,42C 201.018,39.4082 201.352,37.0749 203.5,35C 208.823,34.5006 214.156,34.334 219.5,34.5 Z"/></g>
<g><path style="opacity:1" fill="#de6775" d="M 214.5,37.5 C 214.67,38.8221 214.337,39.9887 213.5,41C 210.167,41.6667 206.833,41.6667 203.5,41C 202.167,39.6667 202.167,38.3333 203.5,37C 207.255,36.2446 210.922,36.4113 214.5,37.5 Z"/></g>
<g><path style="opacity:1" fill="#311013" d="M 101.5,42.5 C 100.846,38.6839 98.5128,37.0172 94.5,37.5C 93.3812,44.1246 92.3812,50.7913 91.5,57.5C 90.8243,58.6016 90.1577,59.6016 89.5,60.5C 90.8375,52.1493 92.1708,43.816 93.5,35.5C 95.8333,35.5 98.1667,35.5 100.5,35.5C 100.993,37.8056 101.326,40.139 101.5,42.5 Z"/></g>
<g><path style="opacity:1" fill="#aa5960" d="M 106.5,34.5 C 109.833,34.5 113.167,34.5 116.5,34.5C 116.5,34.8333 116.5,35.1667 116.5,35.5C 113.167,35.5 109.833,35.5 106.5,35.5C 106.5,44.5 106.5,53.5 106.5,62.5C 106.167,62.5 105.833,62.5 105.5,62.5C 104.908,59.8728 104.575,57.2062 104.5,54.5C 105.167,47.8333 105.833,41.1667 106.5,34.5 Z"/></g>
<g><path style="opacity:1" fill="#fc6174" d="M 176.5,23.5 C 183.167,23.5 189.833,23.5 196.5,23.5C 196.5,51.1667 196.5,78.8333 196.5,106.5C 188.688,107.069 181.021,107.736 173.5,108.5C 173.167,108.5 172.833,108.5 172.5,108.5C 166.231,108.118 160.065,107.118 154,105.5C 150.744,107.429 147.244,107.929 143.5,107C 142.167,106 142.167,105 143.5,104C 142.256,103.544 141.423,104.044 141,105.5C 137.19,101.104 134.856,101.771 134,107.5C 125.174,107.261 116.008,107.261 106.5,107.5C 106.751,105.83 107.418,104.33 108.5,103C 106.311,102.323 105.978,101.156 107.5,99.5C 105.5,96.5 103.5,93.5 101.5,90.5C 101.982,83.4056 102.982,76.4056 104.5,69.5C 102.252,68.676 102.086,67.676 104,66.5C 105.011,67.3366 106.178,67.67 107.5,67.5C 106.4,68.6049 105.733,69.9382 105.5,71.5C 104.345,78.6549 104.178,85.9882 105,93.5C 106.648,95.0284 108.648,95.6951 111,95.5C 112.707,95.4915 114.207,95.1582 115.5,94.5C 116.167,94.5 116.833,94.5 117.5,94.5C 118.964,93.5946 120.298,93.5946 121.5,94.5C 123.167,94.5 124.833,94.5 126.5,94.5C 127.167,91.8333 127.833,89.1667 128.5,86.5C 128.893,88.2838 129.559,89.9505 130.5,91.5C 130.5,92.5 130.5,93.5 130.5,94.5C 132.167,94.5 133.833,94.5 135.5,94.5C 136.167,94.5 136.833,94.5 137.5,94.5C 140.167,94.5 142.833,94.5 145.5,94.5C 147.256,93.4479 147.923,91.7812 147.5,89.5C 147.325,87.3792 147.659,85.3792 148.5,83.5C 150.627,84.3976 151.794,86.0643 152,88.5C 153.734,87.7511 155.567,87.2511 157.5,87C 158.723,84.9479 159.723,82.7812 160.5,80.5C 161.48,83.0865 161.813,85.7531 161.5,88.5C 162.5,88.5 163.5,88.5 164.5,88.5C 164.784,85.7462 165.451,83.0795 166.5,80.5C 169.067,92.7314 170.567,92.3981 171,79.5C 171.414,79.0426 171.914,78.7093 172.5,78.5C 173.678,83.6131 174.178,88.6131 174,93.5C 174.718,94.4506 175.551,94.6172 176.5,94C 177.235,84.6962 177.235,74.8629 176.5,64.5C 176.667,62.1667 176.833,59.8333 177,57.5C 177.5,57 178,56.5 178.5,56C 175.925,44.8016 175.259,33.9682 176.5,23.5 Z"/></g>
<g><path style="opacity:1" fill="#510b13" d="M 203.5,46.5 C 205.833,46.5 208.167,46.5 210.5,46.5C 213.167,46.5 215.833,46.5 218.5,46.5C 222.464,47.9221 223.464,50.5888 221.5,54.5C 217.757,54.5408 217.59,53.8741 221,52.5C 221.684,51.2161 221.517,50.0495 220.5,49C 218.288,48.2109 216.288,48.3775 214.5,49.5C 215.801,50.8845 215.801,52.3845 214.5,54C 210.5,54.6667 206.5,54.6667 202.5,54C 201.083,51.2565 201.416,48.7565 203.5,46.5 Z"/></g>
<g><path style="opacity:1" fill="#2e0508" d="M 148.5,35.5 C 149.451,36.9187 149.784,38.5853 149.5,40.5C 149.5,47.8333 149.5,55.1667 149.5,62.5C 147.265,62.7947 145.265,62.4614 143.5,61.5C 145.167,61.5 146.833,61.5 148.5,61.5C 148.5,52.8333 148.5,44.1667 148.5,35.5 Z"/></g>
<g><path style="opacity:1" fill="#6b2832" d="M 153.5,40.5 C 154.491,47.3134 154.825,54.3134 154.5,61.5C 156.167,61.5 157.833,61.5 159.5,61.5C 159.175,54.3134 159.509,47.3134 160.5,40.5C 160.5,47.8333 160.5,55.1667 160.5,62.5C 157.612,63.0102 155.279,62.3435 153.5,60.5C 153.5,53.8333 153.5,47.1667 153.5,40.5 Z"/></g>
<g><path style="opacity:1" fill="#150505" d="M 101.5,42.5 C 101.328,43.4916 101.662,44.1583 102.5,44.5C 102.311,48.037 102.977,51.3703 104.5,54.5C 104.575,57.2062 104.908,59.8728 105.5,62.5C 103.473,62.6621 101.473,62.4955 99.5,62C 98.6921,60.2942 97.3588,59.4609 95.5,59.5C 95.5,60.5 95.5,61.5 95.5,62.5C 93.5,62.5 91.5,62.5 89.5,62.5C 89.5,61.8333 89.5,61.1667 89.5,60.5C 90.1577,59.6016 90.8243,58.6016 91.5,57.5C 92.3812,50.7913 93.3812,44.1246 94.5,37.5C 98.5128,37.0172 100.846,38.6839 101.5,42.5 Z"/></g>
<g><path style="opacity:1" fill="#a36773" d="M 96.5,46.5 C 98.117,48.9796 98.4503,51.6463 97.5,54.5C 96.52,51.9135 96.1866,49.2469 96.5,46.5 Z"/></g>
<g><path style="opacity:1" fill="#bc616b" d="M 112.5,40.5 C 113.5,40.5 114.5,40.5 115.5,40.5C 115.666,45.8437 115.499,51.1771 115,56.5C 114.586,56.9574 114.086,57.2907 113.5,57.5C 112.505,51.8722 112.171,46.2055 112.5,40.5 Z"/></g>
<g><path style="opacity:1" fill="#e86676" d="M 203.5,46.5 C 201.416,48.7565 201.083,51.2565 202.5,54C 206.5,54.6667 210.5,54.6667 214.5,54C 215.801,52.3845 215.801,50.8845 214.5,49.5C 216.288,48.3775 218.288,48.2109 220.5,49C 221.517,50.0495 221.684,51.2161 221,52.5C 217.59,53.8741 217.757,54.5408 221.5,54.5C 220.909,55.1515 220.243,55.8182 219.5,56.5C 220.243,57.1818 220.909,57.8485 221.5,58.5C 215.5,58.5 209.5,58.5 203.5,58.5C 203.179,56.9519 202.179,56.2852 200.5,56.5C 200.335,53.4816 200.502,50.4816 201,47.5C 201.671,46.7476 202.504,46.4142 203.5,46.5 Z"/></g>
<g><path style="opacity:1" fill="#dd6878" d="M 214.5,49.5 C 214.67,50.8221 214.337,51.9887 213.5,53C 210.167,53.6667 206.833,53.6667 203.5,53C 202.167,51.6667 202.167,50.3333 203.5,49C 207.255,48.2446 210.922,48.4113 214.5,49.5 Z"/></g>
<g><path style="opacity:1" fill="#550e15" d="M 203.5,58.5 C 209.5,58.5 215.5,58.5 221.5,58.5C 221.5,58.8333 221.5,59.1667 221.5,59.5C 223.213,62.4482 222.713,64.7816 220,66.5C 219.5,66.3333 219,66.1667 218.5,66C 221.346,65.1207 222.013,63.4541 220.5,61C 218.288,60.2109 216.288,60.3775 214.5,61.5C 215.801,62.8845 215.801,64.3845 214.5,66C 210.5,66.6667 206.5,66.6667 202.5,66C 201.083,63.2565 201.416,60.7565 203.5,58.5 Z"/></g>
<g><path style="opacity:1" fill="#502a2d" d="M 247.5,33.5 C 247.5,33.8333 247.5,34.1667 247.5,34.5C 246.624,34.3691 245.957,34.7025 245.5,35.5C 246.833,38.1667 246.833,40.8333 245.5,43.5C 247.005,44.8415 247.672,46.5082 247.5,48.5C 249.674,50.97 249.674,53.6367 247.5,56.5C 248.167,57.1667 248.833,57.8333 249.5,58.5C 248.907,60.3817 248.24,62.2151 247.5,64C 248.167,64.6667 248.833,65.3333 249.5,66C 248.901,67.6225 248.234,69.1225 247.5,70.5C 247.135,72.588 247.135,74.9213 247.5,77.5C 249.537,80.1089 249.537,82.9422 247.5,86C 248.167,86.6667 248.833,87.3333 249.5,88C 248.756,89.8148 248.089,91.6481 247.5,93.5C 247.5,95.5 247.5,97.5 247.5,99.5C 247.5,99.8333 247.5,100.167 247.5,100.5C 247.238,103.252 247.238,106.252 247.5,109.5C 235.704,109.63 230.038,115.63 230.5,127.5C 162.998,127.832 95.6646,127.499 28.5,126.5C 28.8333,126.5 29.1667,126.5 29.5,126.5C 96.17,126.833 162.837,126.5 229.5,125.5C 229.043,124.702 228.376,124.369 227.5,124.5C 227.958,118.587 230.291,113.587 234.5,109.5C 238.259,108.456 241.925,107.122 245.5,105.5C 243.022,104.278 242.022,102.278 242.5,99.5C 243.643,99.0919 244.643,98.4252 245.5,97.5C 241.983,95.6164 241.649,93.2831 244.5,90.5C 241.552,87.5626 241.885,85.0626 245.5,83C 241.548,80.5982 241.548,78.0982 245.5,75.5C 241.983,73.6164 241.649,71.2831 244.5,68.5C 241.717,65.658 242.05,63.158 245.5,61C 244.473,60.4867 243.473,59.9867 242.5,59.5C 242.5,59.1667 242.5,58.8333 242.5,58.5C 242.383,56.5165 243.05,54.8498 244.5,53.5C 241.649,50.7169 241.983,48.3836 245.5,46.5C 241.5,44.1667 241.5,41.8333 245.5,39.5C 242.643,38.0449 241.977,36.0449 243.5,33.5C 244.497,33.5299 245.164,33.0299 245.5,32C 245.05,30.7147 244.383,29.548 243.5,28.5C 243.833,28.1667 244.167,27.8333 244.5,27.5C 246.923,28.7118 247.923,30.7118 247.5,33.5 Z"/></g>
<g><path style="opacity:1" fill="#fd5f71" d="M 103.5,63.5 C 108.844,63.666 114.177,63.4994 119.5,63C 121.202,61.4167 122.536,61.9167 123.5,64.5C 122.167,65.5 120.833,66.5 119.5,67.5C 117.929,66.6906 116.262,66.3573 114.5,66.5C 112.05,66.298 109.717,66.6314 107.5,67.5C 106.178,67.67 105.011,67.3366 104,66.5C 102.086,67.676 102.252,68.676 104.5,69.5C 102.982,76.4056 101.982,83.4056 101.5,90.5C 103.5,93.5 105.5,96.5 107.5,99.5C 105.978,101.156 106.311,102.323 108.5,103C 107.418,104.33 106.751,105.83 106.5,107.5C 104.833,107.5 103.167,107.5 101.5,107.5C 101.67,106.178 101.337,105.011 100.5,104C 101.43,102.806 102.097,101.473 102.5,100C 101.581,97.0731 100.581,94.2398 99.5,91.5C 99.4371,89.5191 100.104,87.8524 101.5,86.5C 101.167,85.5 100.5,84.8333 99.5,84.5C 98.6701,90.1376 98.1701,95.8042 98,101.5C 97.586,101.957 97.086,102.291 96.5,102.5C 95.3289,100.158 94.1622,97.8244 93,95.5C 92.51,96.7932 92.3433,98.1266 92.5,99.5C 90.5446,98.6803 89.0446,97.6803 88,96.5C 87.1667,96.6667 86.3333,96.8333 85.5,97C 86.4506,97.7175 86.6172,98.5509 86,99.5C 82.4324,98.2495 82.0991,95.9161 85,92.5C 89.2871,96.9151 90.4537,96.0818 88.5,90C 90.1075,90.0187 91.7741,90.1854 93.5,90.5C 93.238,91.9778 93.5713,93.3112 94.5,94.5C 95.8333,92.1667 95.8333,89.8333 94.5,87.5C 91.875,88.3798 89.5416,87.7131 87.5,85.5C 83.5604,86.8364 82.8938,86.0031 85.5,83C 83.2769,82.3483 82.1102,80.8483 82,78.5C 81.3645,79.9663 80.5312,81.2997 79.5,82.5C 79.582,87.3159 80.2486,92.4825 81.5,98C 80.0953,99.2692 78.4286,99.7692 76.5,99.5C 76.8333,97.5 77.1667,95.5 77.5,93.5C 75.1046,94.3635 72.7713,94.3635 70.5,93.5C 69.8627,90.3648 70.5294,87.3648 72.5,84.5C 70.0962,83.65 67.7628,82.65 65.5,81.5C 65.7824,79.0134 65.7824,76.3467 65.5,73.5C 64.448,73.3505 63.448,73.5172 62.5,74C 62.8333,74.3333 63.1667,74.6667 63.5,75C 61.3862,76.4976 60.8862,78.3309 62,80.5C 60.3986,80.1117 58.5652,79.4451 56.5,78.5C 56.2108,82.1064 56.5442,85.6064 57.5,89C 56.9152,90.3024 56.2485,91.469 55.5,92.5C 55.5,76.5 55.5,60.5 55.5,44.5C 56.9778,44.238 58.3112,44.5713 59.5,45.5C 55.4076,48.701 55.5743,51.701 60,54.5C 60.6667,53.8333 61.3333,53.1667 62,52.5C 62.8236,55.8823 62.657,59.2156 61.5,62.5C 60.4495,61.1152 59.1161,60.1152 57.5,59.5C 56.1026,64.9176 56.2693,70.2509 58,75.5C 58.8618,73.4056 60.0285,72.4056 61.5,72.5C 60.624,71.7492 59.624,71.2492 58.5,71C 60.0609,70.6824 61.2276,69.8491 62,68.5C 62.2896,70.0441 62.9563,71.3774 64,72.5C 65.7184,70.7979 65.885,68.9645 64.5,67C 65.5463,61.7634 66.713,56.5967 68,51.5C 68.2734,53.1012 68.7734,54.6012 69.5,56C 66.881,59.0854 66.881,62.2521 69.5,65.5C 68.5,66.1667 67.5,66.8333 66.5,67.5C 67.371,69.0582 68.371,70.7249 69.5,72.5C 68.9264,74.0589 68.2598,75.5589 67.5,77C 70.7566,77.2794 71.7566,75.9461 70.5,73C 72.8802,70.8564 72.8802,68.1898 70.5,65C 71.7839,64.3162 72.9505,64.4829 74,65.5C 74.2256,68.095 74.7256,70.595 75.5,73C 74.0267,73.7096 73.3601,74.8762 73.5,76.5C 76.4648,76.27 77.7981,74.6034 77.5,71.5C 77.2904,61.1376 77.2904,50.8043 77.5,40.5C 81.573,42.2547 82.573,40.588 80.5,35.5C 81.5,34.1667 82.5,34.1667 83.5,35.5C 83.1667,36.1667 82.8333,36.8333 82.5,37.5C 83.2941,43.7829 83.7941,50.1162 84,56.5C 84.4497,58.519 85.283,60.3523 86.5,62C 86.1667,62.3333 85.8333,62.6667 85.5,63C 88.4239,65.2067 91.7572,66.7067 95.5,67.5C 96.7193,66.7366 97.7193,65.7366 98.5,64.5C 101.134,67.278 102.801,66.9447 103.5,63.5 Z"/></g>
<g><path style="opacity:1" fill="#e06878" d="M 143.5,34.5 C 143.5,34.8333 143.5,35.1667 143.5,35.5C 143.5,44.1667 143.5,52.8333 143.5,61.5C 145.265,62.4614 147.265,62.7947 149.5,62.5C 149.5,55.1667 149.5,47.8333 149.5,40.5C 150.167,40.5 150.833,40.5 151.5,40.5C 152.167,40.5 152.833,40.5 153.5,40.5C 153.5,47.1667 153.5,53.8333 153.5,60.5C 152.833,54.3208 152.167,47.9875 151.5,41.5C 150.669,49.1451 150.169,56.8117 150,64.5C 148.52,66.3369 148.52,68.3369 150,70.5C 151,69.1667 152,69.1667 153,70.5C 153.667,72.8333 153.667,75.1667 153,77.5C 151.644,76.6198 150.144,76.2865 148.5,76.5C 148.5,78.8333 148.5,81.1667 148.5,83.5C 147.659,85.3792 147.325,87.3792 147.5,89.5C 146.167,89.5 144.833,89.5 143.5,89.5C 143.5,87.1667 143.5,84.8333 143.5,82.5C 144.5,82.5 145.5,82.5 146.5,82.5C 146.5,81.1667 146.5,79.8333 146.5,78.5C 145.5,78.5 144.5,78.5 143.5,78.5C 143.5,76.5 143.5,74.5 143.5,72.5C 144.833,72.5 146.167,72.5 147.5,72.5C 147.5,70.8333 147.5,69.1667 147.5,67.5C 144.167,67.5 140.833,67.5 137.5,67.5C 137.5,76.5 137.5,85.5 137.5,94.5C 136.833,94.5 136.167,94.5 135.5,94.5C 135.827,85.3178 135.493,76.3178 134.5,67.5C 133.167,67.5 131.833,67.5 130.5,67.5C 129.833,70.1667 129.167,72.8333 128.5,75.5C 128.889,70.2122 126.556,67.5455 121.5,67.5C 121.5,76.5 121.5,85.5 121.5,94.5C 120.298,93.5946 118.964,93.5946 117.5,94.5C 117.987,93.5266 118.487,92.5266 119,91.5C 119.667,84.1667 119.667,76.8333 119,69.5C 117.348,68.6006 115.848,67.6006 114.5,66.5C 116.262,66.3573 117.929,66.6906 119.5,67.5C 120.833,66.5 122.167,65.5 123.5,64.5C 122.536,61.9167 121.202,61.4167 119.5,63C 114.177,63.4994 108.844,63.666 103.5,63.5C 98.7377,63.2002 94.071,62.8669 89.5,62.5C 91.5,62.5 93.5,62.5 95.5,62.5C 95.5,61.5 95.5,60.5 95.5,59.5C 97.3588,59.4609 98.6921,60.2942 99.5,62C 101.473,62.4955 103.473,62.6621 105.5,62.5C 105.833,62.5 106.167,62.5 106.5,62.5C 110.182,62.6653 113.848,62.4986 117.5,62C 118.931,61.5348 120.097,60.7014 121,59.5C 121.831,52.144 121.665,44.8107 120.5,37.5C 119.378,36.3698 118.044,35.7031 116.5,35.5C 116.5,35.1667 116.5,34.8333 116.5,34.5C 118.833,34.5 121.167,34.5 123.5,34.5C 123.5,36.5 123.5,38.5 123.5,40.5C 123.5,47.5 123.5,54.5 123.5,61.5C 124.919,62.4511 126.585,62.7845 128.5,62.5C 128.183,58.2984 128.517,54.2984 129.5,50.5C 129.564,54.2198 130.064,57.8865 131,61.5C 131.414,61.9574 131.914,62.2907 132.5,62.5C 134.026,59.3462 134.693,56.0128 134.5,52.5C 135.479,55.6248 135.813,58.9581 135.5,62.5C 137.5,62.5 139.5,62.5 141.5,62.5C 141.827,53.3178 141.493,44.3178 140.5,35.5C 138.5,35.5 136.5,35.5 134.5,35.5C 134.007,37.8056 133.674,40.139 133.5,42.5C 132.732,43.2625 132.232,44.2625 132,45.5C 131.506,43.8659 131.34,42.1992 131.5,40.5C 132.074,38.2121 133.074,36.0454 134.5,34C 137.555,33.3658 140.555,33.5325 143.5,34.5 Z"/></g>
<g><path style="opacity:1" fill="#672f36" d="M 140.5,35.5 C 141.493,44.3178 141.827,53.3178 141.5,62.5C 139.5,62.5 137.5,62.5 135.5,62.5C 135.813,58.9581 135.479,55.6248 134.5,52.5C 134.892,50.8211 135.392,49.1545 136,47.5C 136.499,52.1548 136.666,56.8215 136.5,61.5C 137.833,61.5 139.167,61.5 140.5,61.5C 140.5,52.8333 140.5,44.1667 140.5,35.5 Z"/></g>
<g><path style="opacity:1" fill="#301013" d="M 123.5,34.5 C 125.5,34.5 127.5,34.5 129.5,34.5C 129.595,36.7857 130.262,38.7857 131.5,40.5C 131.34,42.1992 131.506,43.8659 132,45.5C 132.232,44.2625 132.732,43.2625 133.5,42.5C 133.5,43.8333 133.5,45.1667 133.5,46.5C 132.178,46.67 131.011,46.3366 130,45.5C 129.506,47.1341 129.34,48.8008 129.5,50.5C 128.517,54.2984 128.183,58.2984 128.5,62.5C 126.585,62.7845 124.919,62.4511 123.5,61.5C 124.833,61.5 126.167,61.5 127.5,61.5C 127.543,53.1523 127.876,44.819 128.5,36.5C 127.167,36.5 125.833,36.5 124.5,36.5C 124.768,38.099 124.434,39.4324 123.5,40.5C 123.5,38.5 123.5,36.5 123.5,34.5 Z"/></g>
<g><path style="opacity:1" fill="#140404" d="M 140.5,35.5 C 140.5,44.1667 140.5,52.8333 140.5,61.5C 139.167,61.5 137.833,61.5 136.5,61.5C 136.666,56.8215 136.499,52.1548 136,47.5C 135.392,49.1545 134.892,50.8211 134.5,52.5C 134.693,56.0128 134.026,59.3462 132.5,62.5C 131.914,62.2907 131.414,61.9574 131,61.5C 130.064,57.8865 129.564,54.2198 129.5,50.5C 129.34,48.8008 129.506,47.1341 130,45.5C 131.011,46.3366 132.178,46.67 133.5,46.5C 133.5,45.1667 133.5,43.8333 133.5,42.5C 133.674,40.139 134.007,37.8056 134.5,35.5C 136.5,35.5 138.5,35.5 140.5,35.5 Z"/></g>
<g><path style="opacity:1" fill="#080001" d="M 123.5,61.5 C 123.5,54.5 123.5,47.5 123.5,40.5C 124.434,39.4324 124.768,38.099 124.5,36.5C 125.833,36.5 127.167,36.5 128.5,36.5C 127.876,44.819 127.543,53.1523 127.5,61.5C 126.167,61.5 124.833,61.5 123.5,61.5 Z"/></g>
<g><path style="opacity:1" fill="#e96576" d="M 203.5,58.5 C 201.416,60.7565 201.083,63.2565 202.5,66C 206.5,66.6667 210.5,66.6667 214.5,66C 215.801,64.3845 215.801,62.8845 214.5,61.5C 216.288,60.3775 218.288,60.2109 220.5,61C 222.013,63.4541 221.346,65.1207 218.5,66C 219,66.1667 219.5,66.3333 220,66.5C 222.713,64.7816 223.213,62.4482 221.5,59.5C 222.5,59.5 223.5,59.5 224.5,59.5C 224.5,64.5 224.5,69.5 224.5,74.5C 218.934,72.7561 213.267,71.4227 207.5,70.5C 207.5,72.5 207.5,74.5 207.5,76.5C 205.821,76.2852 204.821,76.9519 204.5,78.5C 202.972,78.4827 202.472,77.816 203,76.5C 204.011,75.6634 205.178,75.33 206.5,75.5C 206.799,73.396 206.466,71.396 205.5,69.5C 200.82,67.7144 199.32,64.3811 201,59.5C 201.671,58.7476 202.504,58.4142 203.5,58.5 Z"/></g>
<g><path style="opacity:1" fill="#de6977" d="M 214.5,61.5 C 214.67,62.8221 214.337,63.9887 213.5,65C 210.167,65.6667 206.833,65.6667 203.5,65C 202.167,63.6667 202.167,62.3333 203.5,61C 207.255,60.2446 210.922,60.4113 214.5,61.5 Z"/></g>
<g><path style="opacity:1" fill="#551114" d="M 224.5,74.5 C 224.265,75.0967 223.765,75.4301 223,75.5C 218.575,74.1018 214.075,73.1018 209.5,72.5C 209.5,74.1667 209.5,75.8333 209.5,77.5C 211.857,77.3367 214.19,77.5034 216.5,78C 213.518,78.498 210.518,78.6646 207.5,78.5C 206.5,78.5 205.5,78.5 204.5,78.5C 204.821,76.9519 205.821,76.2852 207.5,76.5C 207.5,74.5 207.5,72.5 207.5,70.5C 213.267,71.4227 218.934,72.7561 224.5,74.5 Z"/></g>
<g><path style="opacity:0.467" fill="#a44751" d="M 247.5,70.5 C 249.856,72.8057 249.856,75.139 247.5,77.5C 247.135,74.9213 247.135,72.588 247.5,70.5 Z"/></g>
<g><path style="opacity:1" fill="#df6a7b" d="M 242.5,59.5 C 243.473,59.9867 244.473,60.4867 245.5,61C 242.05,63.158 241.717,65.658 244.5,68.5C 241.649,71.2831 241.983,73.6164 245.5,75.5C 241.548,78.0982 241.548,80.5982 245.5,83C 241.885,85.0626 241.552,87.5626 244.5,90.5C 241.649,93.2831 241.983,95.6164 245.5,97.5C 244.643,98.4252 243.643,99.0919 242.5,99.5C 240.265,91.4623 240.265,83.4623 242.5,75.5C 241.696,74.0589 241.029,72.5589 240.5,71C 241.307,67.1838 241.974,63.3504 242.5,59.5 Z"/></g>
<g><path style="opacity:1" fill="#ee6576" d="M 224.5,74.5 C 224.833,74.5 225.167,74.5 225.5,74.5C 225.536,81.8675 225.036,89.2009 224,96.5C 223.167,97.3333 222.333,98.1667 221.5,99C 216.156,99.4707 210.822,99.9707 205.5,100.5C 205.674,105.021 205.007,105.355 203.5,101.5C 202.998,100.479 202.332,100.312 201.5,101C 202.833,102 202.833,103 201.5,104C 204.051,105.516 203.718,106.349 200.5,106.5C 200.768,104.901 200.434,103.568 199.5,102.5C 199.5,100.5 199.5,98.5 199.5,96.5C 200.167,94.5 200.833,92.5 201.5,90.5C 208.221,88.6856 207.887,87.6856 200.5,87.5C 200.263,86.209 200.596,85.209 201.5,84.5C 204.598,85.821 208.098,86.4877 212,86.5C 215.5,86.1667 219,85.8333 222.5,85.5C 222.023,84.069 221.357,82.7357 220.5,81.5C 219.289,82.2739 219.289,83.1072 220.5,84C 214.843,84.4994 209.176,84.6661 203.5,84.5C 207.982,83.6745 212.649,83.1745 217.5,83C 215.884,82.3848 214.551,81.3848 213.5,80C 211.765,79.3486 210.098,79.5153 208.5,80.5C 207.702,80.0431 207.369,79.3764 207.5,78.5C 210.518,78.6646 213.518,78.498 216.5,78C 214.19,77.5034 211.857,77.3367 209.5,77.5C 209.5,75.8333 209.5,74.1667 209.5,72.5C 214.075,73.1018 218.575,74.1018 223,75.5C 223.765,75.4301 224.265,75.0967 224.5,74.5 Z"/></g>
<g><path style="opacity:1" fill="#662126" d="M 201.5,84.5 C 202.167,84.5 202.833,84.5 203.5,84.5C 209.176,84.6661 214.843,84.4994 220.5,84C 219.289,83.1072 219.289,82.2739 220.5,81.5C 221.357,82.7357 222.023,84.069 222.5,85.5C 219,85.8333 215.5,86.1667 212,86.5C 208.098,86.4877 204.598,85.821 201.5,84.5 Z"/></g>
<g><path style="opacity:1" fill="#550a11" d="M 201.5,90.5 C 206.822,92.4928 212.155,94.4928 217.5,96.5C 221.166,96.631 222.166,95.131 220.5,92C 219.167,91.6667 217.833,91.3333 216.5,91C 221.667,89.5 223.5,91.3333 222,96.5C 215.332,98.0111 209.165,96.6778 203.5,92.5C 202.702,94.0777 202.202,95.7444 202,97.5C 201.503,95.1902 201.337,92.8568 201.5,90.5 Z"/></g>
<g><path style="opacity:0.612" fill="#aa3d43" d="M 247.5,93.5 C 248.478,93.811 249.145,94.4777 249.5,95.5C 249.006,97.0255 248.339,98.3588 247.5,99.5C 247.5,97.5 247.5,95.5 247.5,93.5 Z"/></g>
<g><path style="opacity:1" fill="#5b292e" d="M 23.5,3.5 C 22.2329,6.27202 22.2329,8.93868 23.5,11.5C 23.4431,12.609 23.1098,13.609 22.5,14.5C 21.6618,14.8417 21.3284,15.5084 21.5,16.5C 19.4752,18.1964 17.4752,19.863 15.5,21.5C 10.2001,21.4096 8.20011,23.743 9.5,28.5C 8.99043,30.0879 7.99043,31.2545 6.5,32C 10.1081,33.9569 10.4414,36.4569 7.5,39.5C 10.0142,41.7988 10.0142,44.1321 7.5,46.5C 9.08626,48.1727 9.75293,50.1727 9.5,52.5C 8.32496,52.281 7.32496,52.6143 6.5,53.5C 7.75146,54.6311 8.75146,55.9644 9.5,57.5C 9.02126,63.1241 9.02126,68.7907 9.5,74.5C 8.32496,74.281 7.32496,74.6143 6.5,75.5C 10.4804,78.1132 10.4804,80.7799 6.5,83.5C 7.32496,84.3857 8.32496,84.719 9.5,84.5C 9.75293,86.8273 9.08626,88.8273 7.5,90.5C 10.3506,93.2831 10.0172,95.6164 6.5,97.5C 8.97834,98.7224 9.97834,100.722 9.5,103.5C 8.00475,103.415 7.00475,104.081 6.5,105.5C 14.6342,106.721 20.3008,111.054 23.5,118.5C 22.1667,118.5 21.5,119.167 21.5,120.5C 18.6424,113.542 13.309,109.709 5.5,109C 4.19551,108.196 3.52884,107.029 3.5,105.5C 3.50244,80.8382 3.50244,56.1715 3.5,31.5C 3.52884,29.9707 4.19551,28.804 5.5,28C 2.3662,22.7515 4.03287,20.0849 10.5,20C 13.2487,18.8773 15.7487,17.3773 18,15.5C 19.7839,11.2418 21.6172,7.24177 23.5,3.5 Z"/></g>
<g><path style="opacity:1" fill="#fb405a" d="M 29.5,20.5 C 27.193,21.9774 25.3597,23.9774 24,26.5C 23.3333,52.5 23.3333,78.5 24,104.5C 26.3527,109.26 30.186,111.26 35.5,110.5C 35.5,112.5 35.5,114.5 35.5,116.5C 39.8514,115.533 42.1847,117.2 42.5,121.5C 41.1667,121.5 39.8333,121.5 38.5,121.5C 38.5,120.167 38.5,118.833 38.5,117.5C 37.5,117.5 36.5,117.5 35.5,117.5C 35.5,118.833 35.5,120.167 35.5,121.5C 33.8008,121.66 32.1341,121.494 30.5,121C 32.4054,120.174 32.7388,119.007 31.5,117.5C 29.7826,118.668 29.1159,120.335 29.5,122.5C 28.1779,122.67 27.0113,122.337 26,121.5C 24.8806,116.96 23.3806,112.627 21.5,108.5C 16.9899,107.827 12.6566,106.661 8.5,105C 9.05596,104.617 9.38929,104.117 9.5,103.5C 10.8283,94.4315 10.8283,85.2649 9.5,76C 10.1258,75.2496 10.6258,74.4162 11,73.5C 11.3333,76.1667 11.6667,78.8333 12,81.5C 12.3076,80.6919 12.8076,80.0253 13.5,79.5C 13.8743,71.9527 14.2076,64.286 14.5,56.5C 13.0222,56.762 11.6888,56.4287 10.5,55.5C 11.3652,55.4361 12.3652,55.1027 13.5,54.5C 14.1667,52.8333 14.8333,51.1667 15.5,49.5C 16.086,49.7093 16.586,50.0426 17,50.5C 16.4902,48.6199 16.6569,46.7866 17.5,45C 15.3641,42.5987 14.1974,39.7653 14,36.5C 12.6914,34.1088 11.6914,34.1088 11,36.5C 11.5104,33.4705 11.3437,30.4705 10.5,27.5C 10.7015,23.5761 11.2015,23.5761 12,27.5C 13.4424,25.6089 14.6091,23.6089 15.5,21.5C 17.4752,19.863 19.4752,18.1964 21.5,16.5C 23.0098,15.2721 24.5098,15.2721 26,16.5C 26.4186,15.3279 27.0853,14.3279 28,13.5C 29.3515,15.5938 29.8515,17.9272 29.5,20.5 Z"/></g>
<g><path style="opacity:1" fill="#fd5970" d="M 225.5,27.5 C 226.663,52.33 226.83,77.33 226,102.5C 225.654,104.848 224.487,106.681 222.5,108C 214.841,108.5 207.174,108.666 199.5,108.5C 199.5,106.5 199.5,104.5 199.5,102.5C 200.434,103.568 200.768,104.901 200.5,106.5C 203.718,106.349 204.051,105.516 201.5,104C 202.833,103 202.833,102 201.5,101C 202.332,100.312 202.998,100.479 203.5,101.5C 205.007,105.355 205.674,105.021 205.5,100.5C 210.822,99.9707 216.156,99.4707 221.5,99C 222.333,98.1667 223.167,97.3333 224,96.5C 225.036,89.2009 225.536,81.8675 225.5,74.5C 225.5,58.8333 225.5,43.1667 225.5,27.5 Z"/></g>
<g><path style="opacity:1" fill="#ef1139" d="M 29.5,20.5 C 30.1667,20.5 30.8333,20.5 31.5,20.5C 38.8333,21.1667 46.1667,21.8333 53.5,22.5C 54.1667,51.1667 54.8333,79.8333 55.5,108.5C 94.5,108.5 133.5,108.5 172.5,108.5C 172.833,108.5 173.167,108.5 173.5,108.5C 181.5,108.5 189.5,108.5 197.5,108.5C 197.5,90.5 197.5,72.5 197.5,54.5C 198.167,72.5 198.833,90.5 199.5,108.5C 199.5,109.167 199.5,109.833 199.5,110.5C 144.833,110.5 90.1667,110.5 35.5,110.5C 30.186,111.26 26.3527,109.26 24,104.5C 23.3333,78.5 23.3333,52.5 24,26.5C 25.3597,23.9774 27.193,21.9774 29.5,20.5 Z"/></g>
<g><path style="opacity:1" fill="#fc4c64" d="M 53.5,22.5 C 53.5,51.1667 53.5,79.8333 53.5,108.5C 45.4931,108.666 37.4931,108.5 29.5,108C 28.3333,106.833 27.1667,105.667 26,104.5C 25.176,78.1242 25.3427,51.7909 26.5,25.5C 27.5,24.6667 28.5,23.8333 29.5,23C 37.4931,22.5003 45.4931,22.3336 53.5,22.5 Z"/></g>
<g><path style="opacity:1" fill="#b04c59" d="M 105.5,71.5 C 105.334,78.5079 105.5,85.5079 106,92.5C 108.826,94.3398 111.993,95.0065 115.5,94.5C 114.207,95.1582 112.707,95.4915 111,95.5C 108.648,95.6951 106.648,95.0284 105,93.5C 104.178,85.9882 104.345,78.6549 105.5,71.5 Z"/></g>
<g><path style="opacity:1" fill="#eb5a6c" d="M 28.5,66.5 C 32.1667,66.5 35.8333,66.5 39.5,66.5C 39.5,67.5 39.5,68.5 39.5,69.5C 42.6809,70.334 45.8475,71.334 49,72.5C 50.0299,72.8361 50.5299,73.5028 50.5,74.5C 51.0431,74.56 51.3764,74.8933 51.5,75.5C 50.6171,76.548 49.9504,77.7147 49.5,79C 50.6116,85.7954 50.7783,92.6288 50,99.5C 43.9082,99.9846 38.0748,98.6513 32.5,95.5C 31.6143,96.325 31.281,97.325 31.5,98.5C 29.8333,98.5 28.1667,98.5 26.5,98.5C 26.5,95.5 26.5,92.5 26.5,89.5C 27.791,89.2627 28.791,89.596 29.5,90.5C 28.2749,91.1522 27.6083,92.3189 27.5,94C 27.8333,95.1667 28.1667,96.3333 28.5,97.5C 29.2978,95.9223 29.7978,94.2556 30,92.5C 35.4936,96.6067 41.4936,97.94 48,96.5C 49.5,91.3333 47.6667,89.5 42.5,91C 46.6383,90.7815 47.9716,92.4482 46.5,96C 40.4719,96.151 35.1386,94.3176 30.5,90.5C 34.3867,90.9099 38.0534,91.9099 41.5,93.5C 41.5,91.5 41.5,89.5 41.5,87.5C 36.6367,87.8195 31.97,87.4861 27.5,86.5C 34.5,86.5 41.5,86.5 48.5,86.5C 48.6168,84.5165 47.9501,82.8498 46.5,81.5C 45.2888,82.2739 45.2888,83.1072 46.5,84C 42.8484,84.4986 39.1817,84.6653 35.5,84.5C 37.2646,83.5386 39.2646,83.2053 41.5,83.5C 41.5,82.1667 41.5,80.8333 41.5,79.5C 37.4868,80.7052 33.4868,80.7052 29.5,79.5C 29.9167,76.9208 29.25,74.7542 27.5,73C 30.8511,71.1748 31.1844,69.0082 28.5,66.5 Z"/></g>
<g><path style="opacity:1" fill="#57050c" d="M 29.5,90.5 C 29.8333,90.5 30.1667,90.5 30.5,90.5C 35.1386,94.3176 40.4719,96.151 46.5,96C 47.9716,92.4482 46.6383,90.7815 42.5,91C 47.6667,89.5 49.5,91.3333 48,96.5C 41.4936,97.94 35.4936,96.6067 30,92.5C 29.7978,94.2556 29.2978,95.9223 28.5,97.5C 28.1667,96.3333 27.8333,95.1667 27.5,94C 27.6083,92.3189 28.2749,91.1522 29.5,90.5 Z"/></g>
<g><path style="opacity:1" fill="#8b5259" d="M 128.5,86.5 C 127.833,89.1667 127.167,91.8333 126.5,94.5C 126.334,90.4862 126.501,86.4862 127,82.5C 127.791,83.745 128.291,85.0783 128.5,86.5 Z"/></g>
<g><path style="opacity:1" fill="#3c0b14" d="M 134.5,67.5 C 135.493,76.3178 135.827,85.3178 135.5,94.5C 133.833,94.5 132.167,94.5 130.5,94.5C 130.5,93.5 130.5,92.5 130.5,91.5C 131.467,92.8062 132.801,93.4729 134.5,93.5C 134.5,84.8333 134.5,76.1667 134.5,67.5 Z"/></g>
<g><path style="opacity:1" fill="#6b1b21" d="M 27.5,86.5 C 29.6353,84.631 32.3019,83.9644 35.5,84.5C 39.1817,84.6653 42.8484,84.4986 46.5,84C 45.2888,83.1072 45.2888,82.2739 46.5,81.5C 47.9501,82.8498 48.6168,84.5165 48.5,86.5C 41.5,86.5 34.5,86.5 27.5,86.5 Z"/></g>
<g><path style="opacity:1" fill="#fd5a6e" d="M 106.5,107.5 C 116.008,107.261 125.174,107.261 134,107.5C 134.856,101.771 137.19,101.104 141,105.5C 141.423,104.044 142.256,103.544 143.5,104C 142.167,105 142.167,106 143.5,107C 147.244,107.929 150.744,107.429 154,105.5C 160.065,107.118 166.231,108.118 172.5,108.5C 133.5,108.5 94.5,108.5 55.5,108.5C 55.5,103.167 55.5,97.8333 55.5,92.5C 56.2485,91.469 56.9152,90.3024 57.5,89C 56.5442,85.6064 56.2108,82.1064 56.5,78.5C 58.5652,79.4451 60.3986,80.1117 62,80.5C 60.8862,78.3309 61.3862,76.4976 63.5,75C 63.1667,74.6667 62.8333,74.3333 62.5,74C 63.448,73.5172 64.448,73.3505 65.5,73.5C 65.7824,76.3467 65.7824,79.0134 65.5,81.5C 67.7628,82.65 70.0962,83.65 72.5,84.5C 70.5294,87.3648 69.8627,90.3648 70.5,93.5C 72.7713,94.3635 75.1046,94.3635 77.5,93.5C 77.1667,95.5 76.8333,97.5 76.5,99.5C 78.4286,99.7692 80.0953,99.2692 81.5,98C 80.2486,92.4825 79.582,87.3159 79.5,82.5C 80.5312,81.2997 81.3645,79.9663 82,78.5C 82.1102,80.8483 83.2769,82.3483 85.5,83C 82.8938,86.0031 83.5604,86.8364 87.5,85.5C 89.5416,87.7131 91.875,88.3798 94.5,87.5C 95.8333,89.8333 95.8333,92.1667 94.5,94.5C 93.5713,93.3112 93.238,91.9778 93.5,90.5C 91.7741,90.1854 90.1075,90.0187 88.5,90C 90.4537,96.0818 89.2871,96.9151 85,92.5C 82.0991,95.9161 82.4324,98.2495 86,99.5C 86.6172,98.5509 86.4506,97.7175 85.5,97C 86.3333,96.8333 87.1667,96.6667 88,96.5C 89.0446,97.6803 90.5446,98.6803 92.5,99.5C 92.3433,98.1266 92.51,96.7932 93,95.5C 94.1622,97.8244 95.3289,100.158 96.5,102.5C 97.086,102.291 97.586,101.957 98,101.5C 98.1701,95.8042 98.6701,90.1376 99.5,84.5C 100.5,84.8333 101.167,85.5 101.5,86.5C 100.104,87.8524 99.4371,89.5191 99.5,91.5C 100.581,94.2398 101.581,97.0731 102.5,100C 102.097,101.473 101.43,102.806 100.5,104C 101.337,105.011 101.67,106.178 101.5,107.5C 103.167,107.5 104.833,107.5 106.5,107.5 Z"/></g>
<g><path style="opacity:1" fill="#34090c" d="M 143.5,72.5 C 144.209,71.596 145.209,71.2627 146.5,71.5C 146.5,70.5 146.5,69.5 146.5,68.5C 143.833,68.5 141.167,68.5 138.5,68.5C 138.5,76.8333 138.5,85.1667 138.5,93.5C 141.059,93.1984 143.393,93.5318 145.5,94.5C 142.833,94.5 140.167,94.5 137.5,94.5C 137.5,85.5 137.5,76.5 137.5,67.5C 140.833,67.5 144.167,67.5 147.5,67.5C 147.5,69.1667 147.5,70.8333 147.5,72.5C 146.167,72.5 144.833,72.5 143.5,72.5 Z"/></g>
<g><path style="opacity:1" fill="#180708" d="M 128.5,75.5 C 128.892,77.1789 129.392,78.8455 130,80.5C 130.499,76.1794 130.666,71.8461 130.5,67.5C 131.833,67.5 133.167,67.5 134.5,67.5C 134.5,76.1667 134.5,84.8333 134.5,93.5C 132.801,93.4729 131.467,92.8062 130.5,91.5C 129.559,89.9505 128.893,88.2838 128.5,86.5C 128.291,85.0783 127.791,83.745 127,82.5C 126.501,86.4862 126.334,90.4862 126.5,94.5C 124.833,94.5 123.167,94.5 121.5,94.5C 121.5,85.5 121.5,76.5 121.5,67.5C 126.556,67.5455 128.889,70.2122 128.5,75.5 Z"/></g>
<g><path style="opacity:1" fill="#905560" d="M 130.5,67.5 C 130.666,71.8461 130.499,76.1794 130,80.5C 129.392,78.8455 128.892,77.1789 128.5,75.5C 129.167,72.8333 129.833,70.1667 130.5,67.5 Z"/></g>
<g><path style="opacity:1" fill="#601117" d="M 50.5,74.5 C 50.2648,75.0967 49.7648,75.4301 49,75.5C 44.5594,74.1788 40.0594,73.1788 35.5,72.5C 35.5,73.8333 35.5,75.1667 35.5,76.5C 38.2469,76.1866 40.9135,76.52 43.5,77.5C 39.1026,79.1014 34.7693,79.268 30.5,78C 31.448,77.5172 32.448,77.3505 33.5,77.5C 33.5,75.1667 33.5,72.8333 33.5,70.5C 39.3081,71.3275 44.9747,72.6609 50.5,74.5 Z"/></g>
<g><path style="opacity:1" fill="#170707" d="M 114.5,66.5 C 115.848,67.6006 117.348,68.6006 119,69.5C 119.667,76.8333 119.667,84.1667 119,91.5C 118.487,92.5266 117.987,93.5266 117.5,94.5C 116.833,94.5 116.167,94.5 115.5,94.5C 111.993,95.0065 108.826,94.3398 106,92.5C 105.5,85.5079 105.334,78.5079 105.5,71.5C 105.733,69.9382 106.4,68.6049 107.5,67.5C 109.717,66.6314 112.05,66.298 114.5,66.5 Z"/></g>
<g><path style="opacity:1" fill="#de6d7a" d="M 111.5,71.5 C 112.816,74.0866 113.483,77.0866 113.5,80.5C 113.167,83.5 112.833,86.5 112.5,89.5C 111.504,83.5368 111.171,77.5368 111.5,71.5 Z"/></g>
<g><path style="opacity:1" fill="#090101" d="M 143.5,72.5 C 143.5,74.5 143.5,76.5 143.5,78.5C 144.5,78.5 145.5,78.5 146.5,78.5C 146.5,79.8333 146.5,81.1667 146.5,82.5C 145.5,82.5 144.5,82.5 143.5,82.5C 143.5,84.8333 143.5,87.1667 143.5,89.5C 144.833,89.5 146.167,89.5 147.5,89.5C 147.923,91.7812 147.256,93.4479 145.5,94.5C 143.393,93.5318 141.059,93.1984 138.5,93.5C 138.5,85.1667 138.5,76.8333 138.5,68.5C 141.167,68.5 143.833,68.5 146.5,68.5C 146.5,69.5 146.5,70.5 146.5,71.5C 145.209,71.2627 144.209,71.596 143.5,72.5 Z"/></g>
<g><path style="opacity:1" fill="#560910" d="M 29.5,58.5 C 35.1764,58.3339 40.8431,58.5006 46.5,59C 48.6483,61.0749 48.9817,63.4082 47.5,66C 43.8066,66.5506 43.64,66.0506 47,64.5C 47.6838,63.2161 47.5171,62.0495 46.5,61C 44.2884,60.2109 42.2884,60.3775 40.5,61.5C 41.7199,63.0496 41.7199,64.7163 40.5,66.5C 40.1667,66.5 39.8333,66.5 39.5,66.5C 35.8333,66.5 32.1667,66.5 28.5,66.5C 26.91,63.5451 27.2433,60.8784 29.5,58.5 Z"/></g>
<g><path style="opacity:1" fill="#e45969" d="M 40.5,61.5 C 40.67,62.8221 40.3366,63.9887 39.5,65C 36.1832,65.4983 32.8499,65.665 29.5,65.5C 29.5,63.8333 29.5,62.1667 29.5,60.5C 33.2693,60.244 36.9359,60.5773 40.5,61.5 Z"/></g>
<g><path style="opacity:1" fill="#e8576a" d="M 40.5,66.5 C 41.7199,64.7163 41.7199,63.0496 40.5,61.5C 42.2884,60.3775 44.2884,60.2109 46.5,61C 47.5171,62.0495 47.6838,63.2161 47,64.5C 43.64,66.0506 43.8066,66.5506 47.5,66C 48.9817,63.4082 48.6483,61.0749 46.5,59C 40.8431,58.5006 35.1764,58.3339 29.5,58.5C 29.5,57.5 29.5,56.5 29.5,55.5C 28.5,55.5 27.5,55.5 26.5,55.5C 25.8496,51.3928 26.8496,47.8928 29.5,45C 28.6667,44.1667 27.8333,43.3333 27,42.5C 26.502,39.5184 26.3354,36.5184 26.5,33.5C 33.5079,33.3337 40.5079,33.5004 47.5,34C 48.3333,34.8333 49.1667,35.6667 50,36.5C 50.3333,39.1667 50.6667,41.8333 51,44.5C 51.6543,43.3044 52.1543,43.3044 52.5,44.5C 50.4026,51.8247 49.5692,59.158 50,66.5C 46.8876,67.5732 43.7209,67.5732 40.5,66.5 Z"/></g>
<g><path style="opacity:1" fill="#580c13" d="M 40.5,49.5 C 41.8009,50.8845 41.8009,52.3845 40.5,54C 36.2452,54.7961 32.0785,54.6295 28,53.5C 27.1041,50.975 27.6041,48.8083 29.5,47C 35.1667,46.3333 40.8333,46.3333 46.5,47C 49.3184,49.8532 49.1518,52.3532 46,54.5C 45.5,54.3333 45,54.1667 44.5,54C 47.3463,53.1207 48.013,51.4541 46.5,49C 44.2884,48.2109 42.2884,48.3775 40.5,49.5 Z"/></g>
<g><path style="opacity:1" fill="#e45968" d="M 40.5,49.5 C 40.67,50.8221 40.3366,51.9887 39.5,53C 36.1832,53.4983 32.8499,53.665 29.5,53.5C 29.5,51.8333 29.5,50.1667 29.5,48.5C 33.2693,48.244 36.9359,48.5773 40.5,49.5 Z"/></g>
<g><path style="opacity:1" fill="#5a0914" d="M 29.5,34.5 C 35.1764,34.3339 40.8431,34.5006 46.5,35C 49.3184,37.8532 49.1518,40.3532 46,42.5C 45.5,42.3333 45,42.1667 44.5,42C 47.3463,41.1207 48.013,39.4541 46.5,37C 40.8431,36.5006 35.1764,36.3339 29.5,36.5C 29.5,38.1667 29.5,39.8333 29.5,41.5C 32.8499,41.665 36.1832,41.4983 39.5,41C 40.1905,39.9326 40.6905,38.7659 41,37.5C 41.7203,39.1124 41.5536,40.6124 40.5,42C 36.5,42.6667 32.5,42.6667 28.5,42C 27.0825,39.2565 27.4159,36.7565 29.5,34.5 Z"/></g>
<g><path style="opacity:1" fill="#fd5e71" d="M 197.5,113.5 C 197.247,115.827 197.914,117.827 199.5,119.5C 201.401,118.065 201.734,116.398 200.5,114.5C 201.5,113.167 202.5,113.167 203.5,114.5C 202.897,116.452 203.23,118.452 204.5,120.5C 199.615,121.802 194.782,121.802 190,120.5C 187.393,121.123 184.893,121.79 182.5,122.5C 147.5,122.5 112.5,122.5 77.5,122.5C 77.6633,120.143 77.4966,117.81 77,115.5C 75.6667,114.167 74.3333,114.167 73,115.5C 71.9783,114.646 71.1449,113.646 70.5,112.5C 90.3333,112.167 110.167,111.833 130,111.5C 150.316,111.512 170.482,112.178 190.5,113.5C 191.842,111.995 193.508,111.328 195.5,111.5C 195.131,113.993 195.797,114.66 197.5,113.5 Z"/></g>
<g><path style="opacity:1" fill="#fc5d71" d="M 226.5,12.5 C 227.451,13.9187 227.784,15.5853 227.5,17.5C 229.685,17.7036 231.685,18.3702 233.5,19.5C 233.5,20.5 233.5,21.5 233.5,22.5C 233.472,24.7934 233.805,27.2934 234.5,30C 233.923,38.7284 233.256,47.3951 232.5,56C 233.167,58 233.833,60 234.5,62C 233.167,66.6667 233.167,71.3333 234.5,76C 233.372,78.0652 231.706,78.7319 229.5,78C 230.656,75.5602 230.656,73.0602 229.5,70.5C 231.697,68.1855 231.864,65.8521 230,63.5C 230.41,56.7404 230.077,50.0738 229,43.5C 228.333,63.8333 228.333,84.1667 229,104.5C 229.991,103.57 230.491,102.404 230.5,101C 229.909,96.3302 229.742,91.4968 230,86.5C 231.385,87.5505 232.385,88.8839 233,90.5C 233.666,96.9755 234.166,103.309 234.5,109.5C 231.048,107.699 228.048,108.199 225.5,111C 226.911,114.631 226.578,118.131 224.5,121.5C 223.5,121 222.5,120.5 221.5,120C 222.973,119.29 223.64,118.124 223.5,116.5C 222.5,116.5 221.5,116.5 220.5,116.5C 220.739,118.467 220.406,120.301 219.5,122C 207.171,122.5 194.838,122.667 182.5,122.5C 184.893,121.79 187.393,121.123 190,120.5C 194.782,121.802 199.615,121.802 204.5,120.5C 203.23,118.452 202.897,116.452 203.5,114.5C 202.5,113.167 201.5,113.167 200.5,114.5C 201.734,116.398 201.401,118.065 199.5,119.5C 197.914,117.827 197.247,115.827 197.5,113.5C 204.946,111.847 212.612,110.847 220.5,110.5C 223.675,110.16 225.841,108.493 227,105.5C 227.667,78.5 227.667,51.5 227,24.5C 225.855,23.3636 224.688,22.3636 223.5,21.5C 224.434,20.2275 225.101,18.7275 225.5,17C 223.881,14.8402 224.214,13.3402 226.5,12.5 Z"/></g>
<g><path style="opacity:1" fill="#f95067" d="M 9.5,103.5 C 9.38929,104.117 9.05596,104.617 8.5,105C 12.6566,106.661 16.9899,107.827 21.5,108.5C 23.3806,112.627 24.8806,116.96 26,121.5C 27.0113,122.337 28.1779,122.67 29.5,122.5C 29.1159,120.335 29.7826,118.668 31.5,117.5C 32.7388,119.007 32.4054,120.174 30.5,121C 32.1341,121.494 33.8008,121.66 35.5,121.5C 35.5,120.167 35.5,118.833 35.5,117.5C 36.5,117.5 37.5,117.5 38.5,117.5C 38.5,118.833 38.5,120.167 38.5,121.5C 39.8333,121.5 41.1667,121.5 42.5,121.5C 42.1847,117.2 39.8514,115.533 35.5,116.5C 35.5,114.5 35.5,112.5 35.5,110.5C 90.1667,110.5 144.833,110.5 199.5,110.5C 206.5,110.5 213.5,110.5 220.5,110.5C 212.612,110.847 204.946,111.847 197.5,113.5C 195.797,114.66 195.131,113.993 195.5,111.5C 193.508,111.328 191.842,111.995 190.5,113.5C 170.482,112.178 150.316,111.512 130,111.5C 110.167,111.833 90.3333,112.167 70.5,112.5C 71.1449,113.646 71.9783,114.646 73,115.5C 74.3333,114.167 75.6667,114.167 77,115.5C 77.4966,117.81 77.6633,120.143 77.5,122.5C 59.8409,123.157 42.1743,123.49 24.5,123.5C 23.6993,121.958 23.366,120.292 23.5,118.5C 20.3008,111.054 14.6342,106.721 6.5,105.5C 7.00475,104.081 8.00475,103.415 9.5,103.5 Z"/></g>
<g><path style="opacity:1" fill="#db5d6c" d="M 234.5,109.5 C 230.291,113.587 227.958,118.587 227.5,124.5C 159.665,124.833 91.9979,124.499 24.5,123.5C 42.1743,123.49 59.8409,123.157 77.5,122.5C 112.5,122.5 147.5,122.5 182.5,122.5C 194.838,122.667 207.171,122.5 219.5,122C 220.406,120.301 220.739,118.467 220.5,116.5C 221.5,116.5 222.5,116.5 223.5,116.5C 223.64,118.124 222.973,119.29 221.5,120C 222.5,120.5 223.5,121 224.5,121.5C 226.578,118.131 226.911,114.631 225.5,111C 228.048,108.199 231.048,107.699 234.5,109.5 Z"/></g>
<g><path style="opacity:1" fill="#371b1d" d="M 23.5,118.5 C 23.366,120.292 23.6993,121.958 24.5,123.5C 91.9979,124.499 159.665,124.833 227.5,124.5C 161.5,125.167 95.5,125.833 29.5,126.5C 29.1667,126.5 28.8333,126.5 28.5,126.5C 26.8333,126.5 25.1667,126.5 23.5,126.5C 21.7202,125.01 21.0535,123.01 21.5,120.5C 21.5,119.167 22.1667,118.5 23.5,118.5 Z"/></g>
<g><path style="opacity:1" fill="#312626" d="M 227.5,124.5 C 228.376,124.369 229.043,124.702 229.5,125.5C 162.837,126.5 96.17,126.833 29.5,126.5C 95.5,125.833 161.5,125.167 227.5,124.5 Z"/></g>
<g><path style="opacity:0.845" fill="#943644" d="M 247.5,100.5 C 248.091,101.151 248.757,101.818 249.5,102.5C 248.423,105.474 248.423,108.474 249.5,111.5C 238.505,112.495 232.505,118.495 231.5,129.5C 163.833,129.667 96.1658,129.5 28.5,129C 26.8251,128.015 25.1585,127.181 23.5,126.5C 25.1667,126.5 26.8333,126.5 28.5,126.5C 95.6646,127.499 162.998,127.832 230.5,127.5C 230.038,115.63 235.704,109.63 247.5,109.5C 247.238,106.252 247.238,103.252 247.5,100.5 Z"/></g>
</svg>
